# File created by Blade
# Date/Time:  Wed Apr 08 17:12:12 2015
# Frame Rate: 120.000 fps
#------------------------------------------------------
:FULLY-SPECIFIED
:DEGREES
1700
root 5.666083 36.474397 -0.572070 232.943240 -84.630904 -205.224252
Spine -29.720053 0.531500 -4.870629
Head 15.634849 15.485114 4.667526
LeftShoulder -5.742983 11.809733 30.234616
LeftArm 14.192167 -37.281343 -32.939319
LeftForeArm 25.162540 -0.000000 2.714489
LeftHand -10.513454 -0.000000 -14.777379
LeftHandThumb1 -26.253704 0.000000 33.147579
RightShoulder -23.624637 -41.903448 -14.063744
RightArm 50.894191 48.975929 49.380350
RightForeArm 3.458172 -0.000000 -0.839297
RightHand -2.630300 -0.000000 9.832701
RightHandThumb1 -24.326973 -0.000000 -32.862282
LeftUpLeg -29.588759 12.630684 -5.465054
LeftLeg 12.096500 -0.000000 -0.000000
LeftFoot -11.568072 13.663858 -18.885611
LeftToeBase 7.288946 -0.000000 -0.000000
RightUpLeg -28.881534 -5.128732 -6.642047
RightLeg 11.353829 -0.000000 -0.000000
RightFoot -12.342465 -8.347656 19.858193
RightToeBase 9.228842 -0.000000 -0.000000
1701
root 5.670591 36.474608 -0.573258 233.034260 -84.638448 -205.316462
Spine -29.688707 0.541343 -4.863793
Head 15.546704 15.546299 4.627637
LeftShoulder -5.745754 11.804802 30.228722
LeftArm 14.196461 -37.297853 -32.956986
LeftForeArm 25.156579 0.000000 2.695200
LeftHand -10.499208 -0.000000 -14.825556
LeftHandThumb1 -26.253704 0.000000 33.147579
RightShoulder -23.612435 -41.879613 -14.081413
RightArm 50.895800 48.970355 49.361372
RightForeArm 3.485323 -0.000000 -0.829137
RightHand -2.605242 -0.000000 9.860278
RightHandThumb1 -24.326973 -0.000000 -32.862282
LeftUpLeg -29.598920 12.625095 -5.467458
LeftLeg 12.101971 -0.000000 -0.000000
LeftFoot -11.557275 13.659106 -18.894122
LeftToeBase 7.276559 -0.000000 -0.000000
RightUpLeg -28.887448 -5.134432 -6.643194
RightLeg 11.359223 -0.000000 -0.000000
RightFoot -12.344262 -8.335831 19.874050
RightToeBase 9.223782 -0.000000 -0.000000
1702
root 5.674512 36.474357 -0.573692 233.126657 -84.645257 -205.416379
Spine -29.656089 0.551767 -4.844815
Head 15.458746 15.611912 4.563735
LeftShoulder -5.835621 11.999249 30.104233
LeftArm 14.484114 -37.434245 -33.004204
LeftForeArm 25.095329 -0.000000 2.589588
LeftHand -10.517498 -0.000000 -14.839423
LeftHandThumb1 -26.253704 0.000000 33.147579
RightShoulder -23.583903 -41.855076 -14.137660
RightArm 50.913904 48.953566 49.379755
RightForeArm 3.534056 -0.000000 -0.827480
RightHand -2.615959 0.000000 9.806992
RightHandThumb1 -24.326973 -0.000000 -32.862282
LeftUpLeg -29.598326 12.608512 -5.464459
LeftLeg 12.101555 -0.000000 -0.000000
LeftFoot -11.552691 13.671580 -18.880434
LeftToeBase 7.275846 -0.000000 -0.000000
RightUpLeg -28.886734 -5.126341 -6.653927
RightLeg 11.368285 -0.000000 -0.000000
RightFoot -12.350135 -8.337279 19.886321
RightToeBase 9.253241 -0.000000 -0.000000
1703
root 5.678330 36.474355 -0.575644 233.298868 -84.666621 -205.596433
Spine -29.619803 0.549696 -4.833111
Head 15.377805 15.653851 4.515496
LeftShoulder -5.841035 11.991049 30.110289
LeftArm 14.493153 -37.390903 -33.027486
LeftForeArm 25.007465 -0.000000 2.565693
LeftHand -10.519207 0.000000 -14.769019
LeftHandThumb1 -26.253704 0.000000 33.147579
RightShoulder -23.565382 -41.828363 -14.161083
RightArm 50.936056 48.964076 49.389866
RightForeArm 3.509948 -0.000000 -0.850817
RightHand -2.566600 -0.000000 9.761965
RightHandThumb1 -24.326973 -0.000000 -32.862282
LeftUpLeg -29.602551 12.593397 -5.457060
LeftLeg 12.108463 -0.000000 -0.000000
LeftFoot -11.542643 13.665283 -18.879510
LeftToeBase 7.298705 -0.000000 -0.000000
RightUpLeg -28.883716 -5.136866 -6.651142
RightLeg 11.376129 -0.000000 -0.000000
RightFoot -12.360361 -8.347259 19.887447
RightToeBase 9.247827 -0.000000 -0.000000
1704
root 5.682434 36.474586 -0.576466 233.408239 -84.672725 -205.707317
Spine -29.588957 0.564154 -4.830257
Head 15.299414 15.720567 4.465602
LeftShoulder -5.843803 11.993540 30.107138
LeftArm 14.505067 -37.415024 -33.063168
LeftForeArm 24.991950 -0.000000 2.572038
LeftHand -10.538746 0.000000 -14.740453
LeftHandThumb1 -26.253704 0.000000 33.147579
RightShoulder -23.552835 -41.793464 -14.185963
RightArm 50.914077 48.941396 49.348248
RightForeArm 3.501832 -0.000000 -0.867083
RightHand -2.658814 -0.000000 9.724396
RightHandThumb1 -24.326973 -0.000000 -32.862282
LeftUpLeg -29.607833 12.595449 -5.463023
LeftLeg 12.104353 -0.000000 -0.000000
LeftFoot -11.523009 13.648360 -18.870879
LeftToeBase 7.299460 -0.000000 -0.000000
RightUpLeg -28.897199 -5.124355 -6.661192
RightLeg 11.397184 -0.000000 -0.000000
RightFoot -12.372478 -8.366653 19.896256
RightToeBase 9.250024 -0.000000 -0.000000
1705
root 5.685825 36.474752 -0.577236 233.559789 -84.685104 -205.860906
Spine -29.562942 0.575518 -4.823302
Head 15.231965 15.752243 4.414822
LeftShoulder -5.833264 11.989427 30.097480
LeftArm 14.500218 -37.432408 -33.076099
LeftForeArm 25.002588 0.000000 2.567795
LeftHand -10.545222 -0.000000 -14.758346
LeftHandThumb1 -26.253704 0.000000 33.147579
RightShoulder -23.535936 -41.782860 -14.211433
RightArm 50.888974 48.930370 49.305013
RightForeArm 3.489421 -0.000000 -0.885639
RightHand -2.629069 0.000000 9.712030
RightHandThumb1 -24.326973 -0.000000 -32.862282
LeftUpLeg -29.610997 12.581646 -5.463644
LeftLeg 12.099216 -0.000000 -0.000000
LeftFoot -11.516901 13.651380 -18.875353
LeftToeBase 7.323115 -0.000000 -0.000000
RightUpLeg -28.912208 -5.126275 -6.665663
RightLeg 11.425031 -0.000000 -0.000000
RightFoot -12.381926 -8.383914 19.893646
RightToeBase 9.219726 -0.000000 -0.000000
